# xmcd CD database file
#
# Track frame offsets:
#	150
#	9546
#	25638
#	52209
#	64509
#	78443
#	87430
#	104842
#	117114
#	131624
#	146719
#	163422
#	179111
#	197831
#	214021
#	232619
#	247881
#	260320
#	273106
#	283140
#	295004
#	311499
#
# Disc length: 4401 seconds
#
# Revision: 1
# Processed by: cddbd v1.5.2PL0 Copyright (c) Steve Scherf et al.
# Submitted via: CDex 1.70beta2
#
DISCID=42112f16
DTITLE=Ella Fitzgerald - Songbooks [CD2 - Cole Porter and Rodgers - Hart)
DYEAR=1956
DGENRE=Jazz
TTITLE0=What's this thing called love? (CP)
TTITLE1=You're the top (CP)
TTITLE2=Love for sale (CP)
TTITLE3=It's de-lovely (CP)
TTITLE4=Night and day (CP)
TTITLE5=Ace in the hole (CP)
TTITLE6=So in love (CP)
TTITLE7=I've got you under my skin (CP)
TTITLE8=I concentrate on you (CP)
TTITLE9=Don't fence me in (CP)
TTITLE10=Have you met miss jones? (RH)
TTITLE11=You took advantage of me (RH)
TTITLE12=A ship whithout a sail (RH)
TTITLE13=to keep my love alive (RH)
TTITLE14=Dancing on the ceiling (RH)
TTITLE15=The lady is a tramp (RH)
TTITLE16=With a song in my heart (RH)
TTITLE17=Manhattan (RH)
TTITLE18=Johnny one note (RH)
TTITLE19=I wish I were in love again (RH)
TTITLE20=Spring is here (RH)
TTITLE21=It never entered my mind (RH)
EXTD=YEAR: 1956
EXTT0=
EXTT1=
EXTT2=
EXTT3=
EXTT4=
EXTT5=
EXTT6=
EXTT7=
EXTT8=
EXTT9=
EXTT10=
EXTT11=
EXTT12=
EXTT13=
EXTT14=
EXTT15=
EXTT16=
EXTT17=
EXTT18=
EXTT19=
EXTT20=
EXTT21=
PLAYORDER=
